<svg width="164" height="128" viewBox="0 0 164 128" fill="none" xmlns="http://www.w3.org/2000/svg">
<mask id="mask0_31_157" style="mask-type:luminance" maskUnits="userSpaceOnUse" x="0" y="0" width="164" height="128">
<path d="M139.045 25.9326C134.195 24.6236 129.033 25.1765 124.526 27.405C116.714 31.2613 99.6329 37.589 98.035 20.154C96.1139 -0.816258 52.6438 -6.94891 36.398 9.06593C16.6377 28.5461 35.5918 42.3648 19.5395 50.8828C3.48726 59.4008 -9.55977 82.0055 9.3599 91.7691C21.6124 98.0888 32.3154 96.7666 33.2023 103.154C34.8771 115.203 34.5333 122.482 45.5368 125.829C66.3454 132.161 71.7775 120.409 84.7439 118.36C97.7103 116.311 145.539 134.093 161.51 105.444C171.138 88.1727 137.049 72.088 146.722 62.6777C157.016 52.6623 156.094 30.5368 139.045 25.9326Z" fill="white"/>
</mask>
<g mask="url(#mask0_31_157)">
<path d="M139.045 25.9326C134.195 24.6236 129.033 25.1765 124.526 27.405C116.714 31.2613 99.6329 37.589 98.035 20.154C96.1139 -0.816258 52.6438 -6.94891 36.398 9.06593C16.6377 28.5461 35.5918 42.3648 19.5395 50.8828C3.48726 59.4008 -9.55977 82.0055 9.3599 91.7691C21.6124 98.0888 32.3154 96.7666 33.2023 103.154C34.8771 115.203 34.5333 122.482 45.5368 125.829C66.3454 132.161 71.7775 120.409 84.7439 118.36C97.7103 116.311 145.539 134.093 161.51 105.444C171.138 88.1727 137.049 72.088 146.722 62.6777C157.016 52.6623 156.094 30.5368 139.045 25.9326Z" fill="#E4F4E3"/>
<path d="M111.905 100.847C109.306 102.201 102.528 103.187 95.3365 103.853C92.6728 104.101 89.9483 104.303 87.3682 104.468C80.9987 104.866 75.4471 105.008 73.5508 104.928C73.4514 104.922 73.3523 104.91 73.254 104.893H73.2474C72.9215 104.833 72.6011 104.745 72.2894 104.632C68.0315 103.143 57.9149 96.4817 54.964 94.0308C52.2314 91.7633 45.9534 84.2701 45.9534 84.2701C45.6602 82.2912 50.0281 81.4055 54.5931 85.9384C54.8862 86.224 58.818 88.2582 61.4362 89.604C61.4904 89.6258 61.5434 89.6504 61.5952 89.6776C61.8078 89.7829 62.0079 89.8896 62.1933 89.9846C63.0238 90.4087 63.6146 90.7039 63.7414 90.7709C63.6322 90.6833 63.2283 90.3866 62.6419 89.961C62.507 89.8629 62.3651 89.7583 62.216 89.6474C62.1684 89.6128 62.1208 89.5738 62.0695 89.537C60.1483 88.1249 57.1306 85.8927 55.9901 84.915C54.3167 83.4838 48.826 77.0147 49.8829 76.3823C52.7071 74.7097 56.2481 78.4548 59.7877 81.5137C61.0176 82.5739 66.8917 85.4989 68.9646 86.8991C67.6452 85.73 64.8936 83.2402 64.0324 82.074C62.886 80.5132 60.9297 76.5185 61.6868 76.2174C63.07 75.6689 64.4282 76.6591 67.7852 80.3402C70.6204 83.4463 77.193 84.9784 78.8833 85.8743C82.2762 87.6677 88.7052 85.7072 99.1135 84.7833C103.565 84.3805 107.469 85.2566 109.668 89.1622C111.452 92.328 111.698 96.4993 112.956 99.322C113.199 99.8822 112.797 100.388 111.905 100.847Z" fill="#FFCFBF"/>
<path d="M70.159 83.0774C70.159 83.0774 66.9903 77.7163 69.805 78.4069C72.6196 79.0974 78.3545 86.768 84.4646 86.5288L81.0914 88.945L70.159 83.0774Z" fill="#FFCFBF"/>
<path d="M129.087 123.205L100.907 125.359C99.6067 122.527 93.8462 107.604 93.1191 106.947L93.1125 106.941C93.0894 106.915 93.0649 106.891 93.0392 106.867C92.8922 106.739 92.7359 106.622 92.5715 106.518C92.4475 106.441 92.3143 106.38 92.175 106.337C90.8439 105.54 89.1815 104.93 87.371 104.465L87.3637 104.459C80.4524 102.672 71.4822 102.96 71.458 102.937C69.3925 100.786 73.4078 98.1513 79.3009 95.9339L80.0933 95.4053C83.5148 94.1176 85.8391 93.4771 89.0027 92.5745C89.4336 92.4516 91.2316 92.4118 91.6319 92.2984H91.6384C91.9756 92.202 92.3077 92.1122 92.6265 92.0238C94.5594 91.4915 98.3357 92.5127 99.0108 92.4921C108.449 92.1976 108.45 91.1477 109.794 92.3662V92.3728C110.005 92.5545 110.198 92.7567 110.37 92.9765C110.252 93.3468 128.858 122.786 129.087 123.205Z" fill="#FFCFBF"/>
<path d="M99.435 105.947C93.7581 107.641 83.5726 107.188 77.6993 106.007C76.1659 105.698 74.557 105.613 73.1863 104.857C71.9534 104.177 70.9551 103.147 69.9788 102.133C67.0679 99.1051 64.1733 96.0621 61.2952 93.0039C60.497 92.1558 59.7229 90.7003 60.6436 89.9854C60.9749 89.7285 61.4205 89.6954 61.8383 89.6718C64.477 89.5246 67.3459 89.4406 69.487 90.997C70.9053 92.0277 71.8017 93.6474 73.1878 94.7193C74.8582 96.0106 77.203 96.3632 79.1769 95.6204L99.435 105.947Z" fill="#FFCFBF"/>
<path d="M95.5792 105.829C91.5215 107.029 87.2658 107.154 83.079 106.727C80.9314 106.506 78.8233 106.094 76.6947 105.751C75.6261 105.579 74.5361 105.407 73.5525 104.93C72.5688 104.452 71.7464 103.72 70.9826 102.963C69.3921 101.387 67.8697 99.7349 66.3253 98.1131C64.7445 96.4522 63.1678 94.7864 61.5954 93.1156C61.0632 92.5473 60.2174 91.5505 60.5054 90.6928C60.6718 90.1966 61.1871 90.0677 61.6518 90.0258C62.1825 89.9779 62.7197 89.9639 63.2526 89.9521C65.1716 89.8977 67.2371 89.989 68.9325 90.9968C70.7774 92.0945 71.7281 94.1861 73.5349 95.3324C74.3865 95.865 75.3474 96.1965 76.3451 96.3018C77.3428 96.4071 78.3513 96.2836 79.2946 95.9405C79.5482 95.8485 79.3679 95.4686 79.1121 95.5606C77.1448 96.2747 74.8608 95.9103 73.2292 94.5932C71.6775 93.3417 70.7283 91.4849 68.9347 90.5161C67.1711 89.5642 65.1034 89.4721 63.1441 89.5362C62.3599 89.5612 61.2589 89.4449 60.5846 89.9227C59.9659 90.3644 59.9571 91.1249 60.1998 91.7794C60.5465 92.7174 61.2882 93.4079 61.9589 94.1176C62.793 95.0011 63.6284 95.8845 64.465 96.768C66.1391 98.532 67.8181 100.291 69.502 102.045C70.968 103.568 72.4405 105.156 74.5324 105.748C75.5718 106.042 76.6508 106.158 77.7106 106.353C78.8196 106.559 79.9301 106.752 81.0472 106.908C85.9083 107.588 90.9145 107.65 95.6599 106.245C95.9164 106.172 95.8409 105.753 95.5807 105.831L95.5792 105.829Z" fill="#EF9F8A"/>
<path d="M106.292 97.3593C106.113 94.3408 102.721 93.2763 100.29 92.7006C95.691 91.6157 90.8893 91.7604 86.3633 93.1202C86.1178 93.1938 86.2527 93.5715 86.4989 93.4979C90.6333 92.261 95.0047 92.0498 99.2381 92.8824C100.606 93.1518 102.023 93.4824 103.286 94.089C104.598 94.7192 105.803 95.8464 105.894 97.3895C105.909 97.6472 106.307 97.617 106.292 97.3593H106.292Z" fill="#EF9F8A"/>
<path d="M107.681 102.717C108.004 103.711 108.481 104.647 109.094 105.492C109.266 105.729 109.45 105.958 109.643 106.179C109.684 106.233 109.742 106.271 109.808 106.287C109.877 106.3 109.949 106.285 110.007 106.245C110.109 106.172 110.17 105.991 110.073 105.877C109.737 105.494 109.432 105.085 109.16 104.653C109.025 104.438 108.899 104.219 108.781 103.995C108.775 103.982 108.736 103.908 108.761 103.958C108.746 103.928 108.731 103.899 108.717 103.87C108.687 103.811 108.659 103.751 108.63 103.691C108.575 103.575 108.523 103.458 108.473 103.34C108.361 103.077 108.261 102.808 108.172 102.536C108.148 102.471 108.1 102.418 108.038 102.388C107.975 102.359 107.904 102.355 107.839 102.378C107.774 102.402 107.722 102.451 107.692 102.514C107.663 102.576 107.659 102.648 107.681 102.713V102.717Z" fill="#F18E7B"/>
<path d="M138.202 126.731C145.109 120.504 148.971 111.207 148.782 101.908C148.729 99.2752 148.343 96.6604 147.631 94.1265C147.535 93.7834 148.057 93.6067 148.154 93.9505C150.714 103.06 149.004 113.158 143.816 121.035C142.345 123.272 140.596 125.311 138.611 127.103C138.35 127.339 137.938 126.97 138.202 126.735L138.202 126.731Z" fill="#4C99AF"/>
<path d="M146.691 115.449C147.386 115.449 148.084 115.454 148.776 115.39C149.408 115.332 150.384 115.281 150.907 114.874C151.208 114.801 151.277 114.577 151.115 114.202C150.851 114.146 150.578 114.163 150.324 114.25C149.938 114.358 149.582 114.565 149.224 114.745C148.515 115.106 147.808 115.473 147.099 115.837C146.785 115.998 146.48 115.536 146.797 115.374C147.53 114.996 151.438 112.377 151.913 114.256C152.381 116.111 147.625 116.007 146.721 116.004C146.368 116.004 146.331 115.449 146.687 115.451L146.691 115.449Z" fill="#4C99AF"/>
<path d="M147.823 111.484C148.91 111.236 149.991 110.958 151.055 110.625C151.836 110.381 153.427 109.951 153.748 109.072C153.989 108.852 153.872 108.715 153.397 108.661L152.997 108.64C152.711 108.661 152.427 108.773 152.165 108.886C151.664 109.109 151.183 109.375 150.727 109.68C149.81 110.283 148.981 111.013 148.264 111.847C148.031 112.116 147.621 111.745 147.855 111.479C148.837 110.334 150.023 109.383 151.352 108.675C152.142 108.26 153.592 107.615 154.3 108.561C154.901 109.362 153.194 110.355 152.655 110.615C151.212 111.314 149.551 111.659 147.998 112.014C147.654 112.092 147.477 111.567 147.823 111.489V111.484Z" fill="#4C99AF"/>
<path d="M148.937 106.32C150.062 106.135 151.16 105.81 152.205 105.352C152.716 105.127 153.212 104.869 153.689 104.58C153.919 104.442 154.146 104.297 154.367 104.144C154.474 104.071 154.579 103.997 154.683 103.918C155.257 103.552 155.283 103.273 154.76 103.079C154.394 102.819 154.308 102.808 153.91 102.867C153.606 102.913 153.308 102.991 153.02 103.097C152.496 103.294 152.002 103.565 151.554 103.901C150.635 104.582 149.91 105.484 149.239 106.404C149.029 106.692 148.621 106.318 148.83 106.036C149.776 104.742 150.855 103.502 152.323 102.797C153.08 102.434 154.979 101.749 155.548 102.723C156.251 103.926 154.302 104.886 153.527 105.312C152.107 106.086 150.567 106.614 148.972 106.873C148.622 106.932 148.59 106.379 148.937 106.32Z" fill="#4C99AF"/>
<path d="M149.12 100.782C149.877 100.009 150.789 99.4669 151.685 98.8676C152.609 98.2521 154.49 96.8585 153.957 95.5444C153.937 95.2371 153.773 95.1181 153.465 95.1873C153.264 95.1879 153.064 95.2223 152.874 95.2889C152.554 95.3986 152.262 95.5759 152.016 95.8087C151.519 96.2769 151.233 96.9196 151.013 97.5549C150.617 98.6998 150.427 99.8851 149.772 100.925C149.584 101.225 149.091 100.975 149.282 100.672C150.178 99.2424 150.183 97.4423 151.12 96.0339C151.724 95.1291 153.237 94.0896 154.33 94.856C155.318 95.548 154.125 97.4217 153.573 98.0327C152.416 99.3115 150.734 99.9211 149.532 101.149C149.284 101.402 148.873 101.033 149.123 100.781L149.12 100.782Z" fill="#4C99AF"/>
<path d="M147.801 94.4511C148.49 93.4447 148.881 92.3161 149.052 91.1072C149.218 89.9411 149.317 88.4267 148.659 87.3805C148.541 87.0296 148.346 86.9805 148.072 87.2333C147.79 87.2362 147.662 87.3574 147.689 87.5969C147.579 87.8627 147.627 88.3486 147.616 88.6358C147.596 89.1935 147.607 89.7518 147.647 90.3084C147.744 91.5839 147.994 92.8429 148.392 94.058C148.501 94.3981 147.978 94.5733 147.869 94.2339C147.31 92.5294 147.036 90.7437 147.058 88.9494C147.07 88.1822 146.985 85.9751 148.34 86.3866C149.609 86.7724 149.732 88.8787 149.7 89.933C149.65 91.6204 149.249 93.2989 148.289 94.7014C148.091 94.9907 147.597 94.7419 147.798 94.4481L147.801 94.4511Z" fill="#4C99AF"/>
<path d="M148.491 100.651C148.185 99.7387 147.713 98.923 147.148 98.1478C146.896 97.8025 146.63 97.4675 146.36 97.1362C146.243 96.9934 146.025 96.6025 145.853 96.5325C145.286 96.6101 145.081 96.8027 145.238 97.1104C145.283 97.238 145.334 97.3631 145.392 97.4852C145.606 97.9586 145.9 98.5424 146.305 98.884C146.647 99.1726 147.105 99.2455 147.503 99.4266C148.219 99.7512 148.791 100.272 149.243 100.909C149.45 101.204 148.988 101.503 148.782 101.213C148.258 100.476 147.609 100.056 146.773 99.7402C146.314 99.5642 145.96 99.3721 145.644 98.9797C145.126 98.3392 144.073 96.7504 144.862 95.9612C145.64 95.1838 146.463 96.3912 146.902 96.9337C147.777 98.013 148.569 99.1424 149.015 100.475C149.128 100.814 148.605 100.99 148.491 100.651Z" fill="#4C99AF"/>
<path d="M148.335 106.928C148.005 106.347 147.675 105.757 147.274 105.222C147.013 104.876 146.08 103.663 145.559 103.791C145.226 103.872 145.991 105.403 146.159 105.61C146.646 106.207 147.507 106.356 148.215 106.556C148.556 106.652 148.446 107.196 148.103 107.099C147.191 106.84 146.123 106.627 145.584 105.763C145.257 105.239 144.615 103.996 144.974 103.377C145.341 102.736 146.214 103.428 146.612 103.737C147.578 104.489 148.201 105.578 148.796 106.625C148.971 106.934 148.511 107.239 148.335 106.928Z" fill="#4C99AF"/>
<path d="M147.285 112.472C146.366 111.785 145.571 110.946 144.934 109.99C144.581 109.455 143.752 108.42 144.641 107.967C145.496 107.532 146.294 108.391 146.737 109.017C147.338 109.883 147.703 110.891 147.796 111.941C147.832 112.297 147.283 112.33 147.245 111.976C147.181 111.254 146.975 110.552 146.64 109.91C146.495 109.637 146.327 109.378 146.138 109.135C146.02 108.974 145.885 108.826 145.737 108.693C145.447 108.449 144.863 108.438 144.962 108.963C145.064 109.506 145.747 110.21 146.097 110.616C146.562 111.153 147.084 111.637 147.653 112.06C147.936 112.273 147.566 112.684 147.286 112.471L147.285 112.472Z" fill="#4C99AF"/>
<path d="M145.793 115.983C145.06 115.133 144.401 114.221 143.881 113.222C143.644 112.767 143.242 111.923 143.826 111.541C144.409 111.159 145.057 111.852 145.345 112.31C145.891 113.176 146.066 114.305 146.262 115.291C146.331 115.637 145.808 115.816 145.739 115.467C145.62 114.869 145.491 114.269 145.318 113.683C145.237 113.374 145.125 113.074 144.984 112.788C144.832 112.499 144.691 112.105 144.341 112.321C144.115 112.355 144.066 112.456 144.198 112.625C144.279 112.801 144.368 112.974 144.464 113.14C144.605 113.399 144.757 113.655 144.918 113.901C145.294 114.486 145.71 115.043 146.164 115.569C146.394 115.835 146.026 116.25 145.794 115.98L145.793 115.983Z" fill="#4C99AF"/>
<path d="M127.662 129.326C133.057 119.681 133.856 107.779 130.139 97.3983C129.074 94.4295 127.632 91.6107 125.85 89.0114C125.504 88.5056 126.312 88.0057 126.656 88.5115C133.052 97.8614 134.954 110.009 132.064 120.948C131.25 124.029 130.051 126.995 128.497 129.774C128.198 130.308 127.36 129.862 127.66 129.326H127.662Z" fill="#F28A75"/>
<path d="M133.052 113.26C133.902 112.974 134.761 112.69 135.573 112.303C135.91 112.142 137.688 111.3 137.674 110.871C137.64 109.775 135.902 111.598 135.714 111.793C135.063 112.465 134.412 113.138 133.763 113.811C133.338 114.253 132.646 113.597 133.074 113.155C133.728 112.479 137.595 107.613 138.712 110.114C139.1 110.985 138.175 111.771 137.568 112.226C136.311 113.164 134.796 113.677 133.328 114.171C132.748 114.366 132.473 113.454 133.052 113.259V113.26Z" fill="#F28A75"/>
<path d="M132.779 108.351C133.8 107.722 134.802 107.066 135.779 106.37C136.342 105.968 136.91 105.56 137.403 105.067C137.731 104.74 138.47 104.037 138.41 103.539C138.539 103.298 138.457 103.23 138.164 103.335C137.98 103.301 137.79 103.342 137.635 103.449C137.269 103.596 136.969 103.878 136.682 104.148C136.265 104.548 135.879 104.979 135.526 105.438C134.726 106.472 134.072 107.611 133.582 108.824C133.348 109.39 132.512 108.938 132.745 108.376C133.494 106.56 134.572 104.852 135.993 103.489C136.737 102.775 138.119 101.8 139.152 102.605C140.149 103.384 138.671 105.139 138.091 105.719C136.713 107.098 134.923 108.143 133.276 109.158C132.756 109.479 132.257 108.668 132.778 108.348L132.779 108.351Z" fill="#F28A75"/>
<path d="M131.996 102.134C133.672 101.253 135.177 100.077 136.438 98.6609C136.726 98.3391 137.692 97.4638 137.684 97.0272L137.256 96.2336C137.071 96.2862 136.892 96.3562 136.72 96.4427C136.448 96.5642 136.187 96.7096 135.94 96.877C135.446 97.2204 135.003 97.6335 134.626 98.1036C133.662 99.2903 133.11 100.738 132.653 102.182C132.47 102.763 131.543 102.558 131.727 101.973C132.314 100.115 133.061 98.2383 134.482 96.8557C135.257 96.1018 137.228 94.5491 138.328 95.515C139.58 96.6142 137.977 98.3465 137.247 99.1836C135.9 100.712 134.291 101.985 132.496 102.943C131.961 103.232 131.459 102.423 131.999 102.133L131.996 102.134Z" fill="#F28A75"/>
<path d="M130.096 95.8125C130.792 94.3872 131.893 93.2851 132.776 91.9842C133.142 91.4475 133.463 90.8659 133.655 90.2438C133.82 89.7137 134.114 88.4577 133.561 88.0985C132.941 87.6965 132.06 88.658 131.769 89.1513C131.339 89.8786 131.261 90.7599 131.261 91.5859C131.261 93.0355 131.474 94.4461 131.138 95.8766C130.998 96.4744 130.072 96.2653 130.212 95.6682C130.712 93.5383 129.864 91.2634 130.701 89.1895C131.16 88.0536 132.523 86.6525 133.89 87.0737C135.229 87.4867 134.818 89.8278 134.465 90.793C133.704 92.8706 131.892 94.2937 130.932 96.2594C130.663 96.8108 129.826 96.3617 130.095 95.811L130.096 95.8125Z" fill="#F28A75"/>
<path d="M126.171 89.2065C126.59 87.7076 126.563 86.1762 126.229 84.6618C125.996 83.6024 125.444 81.2554 124.22 80.9013C123.878 80.6107 123.704 80.7992 123.698 81.4667C123.724 81.5793 123.75 81.692 123.776 81.8046C123.81 82.1366 123.953 82.4878 124.05 82.8088C124.674 84.8804 125.664 86.8226 126.971 88.5432C127.338 89.035 126.526 89.5334 126.165 89.0438C124.929 87.3868 123.963 85.5435 123.303 83.5826C122.988 82.6395 121.927 79.7675 123.884 79.8051C125.535 79.8367 126.477 82.0807 126.877 83.3904C127.474 85.3451 127.654 87.4315 127.097 89.4148C126.933 90.0038 126.006 89.7977 126.172 89.2065H126.171Z" fill="#F28A75"/>
<path d="M129.311 96.0509C128.589 95.1078 127.692 94.3576 126.718 93.6847C126.32 93.4101 125.912 93.1532 125.499 92.8977C125.373 92.8189 125.072 92.548 124.924 92.548C124.77 92.4096 124.676 92.4884 124.642 92.7843C124.373 93.0479 124.428 93.2776 124.809 93.4734C125.154 93.8415 125.553 94.2369 125.982 94.5041C126.583 94.8722 127.204 94.7986 127.872 94.8582C128.81 94.9481 129.655 95.3 130.419 95.8455C130.911 96.1952 130.471 97.0404 129.973 96.687C128.955 95.9633 128.026 95.8772 126.821 95.7719C126.149 95.7145 125.648 95.456 125.119 95.0467C124.33 94.4379 122.787 93.1561 123.453 91.9701C124.148 90.7318 125.639 91.8589 126.402 92.3463C127.801 93.2386 129.097 94.2222 130.115 95.5518C130.487 96.0369 129.675 96.5346 129.309 96.0516L129.311 96.0509Z" fill="#F28A75"/>
<path d="M131.546 103.237C130.855 102.621 130.164 101.994 129.368 101.514C128.981 101.282 127.554 100.435 127.096 100.796C127.171 100.653 127.246 100.512 127.321 100.371C127.308 101.118 128.3 102.07 128.88 102.393C129.627 102.809 130.58 102.672 131.415 102.628C132.026 102.596 132.062 103.549 131.452 103.58C130.206 103.646 128.887 103.786 127.894 102.89C127.339 102.388 126.145 101.209 126.378 100.347C126.634 99.4 128.005 99.8756 128.622 100.099C130.002 100.597 131.12 101.582 132.2 102.545C132.656 102.952 132.003 103.645 131.547 103.237H131.546Z" fill="#F28A75"/>
<path d="M132.625 109.978C131.277 109.541 130.013 108.877 128.887 108.015C128.227 107.5 126.908 106.609 127.75 105.679C129.524 103.717 132.446 107.528 133.075 108.896C133.328 109.445 132.523 109.953 132.269 109.396C131.947 108.695 131.555 108.056 131.018 107.496C130.76 107.227 128.585 105.598 128.692 106.408C128.772 107.008 130.019 107.683 130.485 107.967C131.224 108.415 132.011 108.777 132.831 109.047C133.406 109.239 133.203 110.171 132.623 109.978H132.625Z" fill="#F28A75"/>
<path d="M132.161 114.472C131.244 113.928 126.874 111.454 128.276 109.935C128.807 109.357 129.719 109.753 130.234 110.116C131.322 110.881 132.014 112.219 132.664 113.345C132.97 113.874 132.163 114.375 131.858 113.845C131.535 113.285 131.204 112.727 130.84 112.192C130.612 111.858 130.378 111.514 130.088 111.229C129.898 111.042 129.418 110.395 129.376 110.935C129.336 111.435 130.239 111.972 130.613 112.27C131.247 112.77 131.915 113.226 132.612 113.634C133.136 113.945 132.693 114.788 132.166 114.475L132.161 114.472Z" fill="#F28A75"/>
<path d="M70.1147 129.837C63.8748 126.27 59.4337 119.88 58.0543 112.82C57.6633 110.822 57.5276 108.782 57.6504 106.749C57.6672 106.474 57.2429 106.426 57.2267 106.702C56.7818 114.01 59.7276 121.361 64.9391 126.458C66.4169 127.906 68.0727 129.159 69.8662 130.186C70.1022 130.32 70.3544 129.973 70.1147 129.837Z" fill="#4C99AF"/>
<path d="M61.8533 122.712C61.3285 122.829 60.8022 122.946 60.2679 123.013C59.7812 123.072 59.0343 123.195 58.5717 122.973C58.3323 122.968 58.2434 122.81 58.3049 122.499C58.495 122.413 58.7043 122.381 58.9111 122.404C59.2204 122.423 59.5232 122.52 59.8215 122.598C60.4167 122.753 61.0104 122.915 61.6056 123.072C61.8687 123.146 62.0233 122.743 61.758 122.672C61.1408 122.508 57.7589 121.174 57.7076 122.672C57.657 124.152 61.2347 123.288 61.9178 123.136C62.1846 123.077 62.1216 122.653 61.8533 122.712Z" fill="#4C99AF"/>
<path d="M60.348 119.901C59.4853 119.893 58.6226 119.861 57.7635 119.785C57.1339 119.729 55.8578 119.667 55.4744 119.056C55.256 118.93 55.3222 118.807 55.6731 118.688L55.9706 118.606C56.1951 118.586 56.4214 118.602 56.6406 118.655C57.0556 118.741 57.4627 118.863 57.8573 119.018C58.6497 119.323 59.3958 119.737 60.0739 120.25C60.2938 120.414 60.543 120.066 60.3223 119.901C59.3926 119.198 58.3406 118.675 57.2204 118.36C56.5541 118.176 55.3535 117.928 54.9731 118.76C54.6506 119.465 56.1026 119.933 56.5526 120.041C57.7576 120.331 59.0697 120.317 60.3011 120.328C60.5738 120.328 60.6221 119.904 60.348 119.902V119.901Z" fill="#4C99AF"/>
<path d="M58.6602 116.185C57.7795 116.231 56.8966 116.166 56.0317 115.994C55.6096 115.908 55.1934 115.794 54.7856 115.655C54.5892 115.588 54.3942 115.517 54.1992 115.434C54.1062 115.397 54.0145 115.361 53.9236 115.315C53.4296 115.134 53.3644 114.927 53.7279 114.694C53.9603 114.438 54.0211 114.414 54.3356 114.393C54.5726 114.378 54.8106 114.387 55.0458 114.42C55.4748 114.483 55.8926 114.607 56.2868 114.788C57.093 115.152 57.7887 115.714 58.4469 116.297C58.6521 116.48 58.8998 116.13 58.6953 115.949C57.7681 115.126 56.75 114.367 55.5252 114.079C54.8934 113.932 53.3453 113.726 53.0741 114.558C52.7392 115.583 54.37 115.987 55.026 116.181C56.226 116.532 57.4761 116.676 58.7239 116.609C58.9981 116.596 58.9314 116.172 58.6594 116.185H58.6602Z" fill="#4C99AF"/>
<path d="M57.6154 112.025C56.9162 111.566 56.1377 111.307 55.3652 111.005C54.5648 110.692 52.9156 109.949 53.1039 108.87C53.0697 108.634 53.1745 108.517 53.4184 108.519C53.5703 108.486 53.7266 108.478 53.8809 108.498C54.1402 108.528 54.3901 108.614 54.6139 108.749C55.0661 109.021 55.3872 109.46 55.6576 109.904C56.1436 110.703 56.4837 111.568 57.147 112.246C57.3376 112.441 57.6697 112.173 57.4769 111.974C56.5643 111.041 56.2667 109.681 55.3278 108.773C54.7231 108.189 53.4096 107.653 52.7089 108.411C52.0748 109.098 53.2835 110.317 53.801 110.688C54.8843 111.463 56.2558 111.645 57.3655 112.376C57.5942 112.523 57.8441 112.179 57.614 112.028L57.6154 112.025Z" fill="#4C99AF"/>
<path d="M57.5757 107.022C56.8904 106.376 56.4096 105.584 56.0826 104.701C55.7667 103.847 55.4442 102.719 55.7697 101.819C55.8009 101.535 55.9404 101.466 56.1882 101.614C56.4022 101.57 56.518 101.64 56.5371 101.825C56.6639 102.008 56.7079 102.383 56.7621 102.598C56.8681 103.017 56.9515 103.441 57.0121 103.868C57.1478 104.848 57.1651 105.841 57.0634 106.825C57.0362 107.1 57.4606 107.146 57.4878 106.872C57.6308 105.491 57.5456 104.096 57.2356 102.743C57.1 102.166 56.8054 100.483 55.843 101.018C54.9473 101.519 55.1987 103.132 55.3951 103.923C55.7096 105.19 56.2871 106.393 57.2422 107.294C57.4394 107.481 57.7722 107.211 57.5721 107.022H57.5757Z" fill="#4C99AF"/>
<path d="M58.0691 111.824C58.161 111.092 58.3652 110.379 58.6746 109.711C58.8087 109.408 58.9553 109.112 59.1048 108.816C59.1701 108.689 59.2705 108.358 59.3892 108.276C59.829 108.241 60.0154 108.353 59.9485 108.612C59.9359 108.715 59.9178 108.818 59.8942 108.919C59.8092 109.313 59.6824 109.803 59.4325 110.128C59.2214 110.403 58.8871 110.533 58.6159 110.736C58.14 111.101 57.7696 111.587 57.5428 112.144C57.4344 112.398 57.836 112.55 57.9416 112.297C58.2164 111.654 58.6401 111.23 59.2184 110.851C59.5373 110.642 59.7718 110.436 59.947 110.09C60.2343 109.52 60.7701 108.145 60.0452 107.68C59.3203 107.214 58.9047 108.269 58.6614 108.752C58.1776 109.709 57.7642 110.699 57.6447 111.777C57.6139 112.052 58.0383 112.098 58.0691 111.824Z" fill="#4C99AF"/>
<path d="M59.2153 116.542C59.3576 116.043 59.5321 115.553 59.7379 115.077C59.8787 114.771 60.3851 113.701 60.7993 113.711C61.0653 113.718 60.7377 115.002 60.6439 115.184C60.3734 115.715 59.7474 115.969 59.2446 116.238C59.0035 116.368 59.1757 116.76 59.4183 116.63C60.0663 116.284 60.8381 115.946 61.1042 115.204C61.2655 114.754 61.544 113.711 61.1775 113.301C60.7927 112.876 60.2481 113.543 59.9989 113.842C59.3905 114.571 59.0973 115.495 58.8195 116.387C58.7381 116.649 59.1361 116.803 59.2182 116.54L59.2153 116.542Z" fill="#4C99AF"/>
<path d="M60.9167 120.558C61.4988 119.887 61.9624 119.122 62.2874 118.294C62.4669 117.831 62.9243 116.912 62.176 116.716C61.4584 116.529 60.9966 117.311 60.7635 117.857C60.4513 118.61 60.3404 119.432 60.4417 120.242C60.4732 120.517 60.8947 120.451 60.8639 120.177C60.7946 119.621 60.835 119.056 60.9827 118.515C61.048 118.286 61.1326 118.062 61.2355 117.847C61.2987 117.706 61.376 117.572 61.4664 117.448C61.6453 117.215 62.0851 117.11 62.0968 117.521C62.1085 117.948 61.7068 118.593 61.5104 118.958C61.246 119.44 60.9307 119.892 60.57 120.306C60.3911 120.515 60.7386 120.763 60.9174 120.556L60.9167 120.558Z" fill="#4C99AF"/>
<path d="M62.6185 122.965C63.0413 122.206 63.3748 121.4 63.6125 120.564C63.7173 120.18 63.8822 119.476 63.3786 119.283C62.8751 119.09 62.4991 119.725 62.3561 120.115C62.0857 120.86 62.1362 121.743 62.1516 122.52C62.156 122.793 62.5804 122.843 62.5753 122.567C62.568 122.095 62.5672 121.62 62.6009 121.149C62.6123 120.902 62.6482 120.657 62.708 120.417C62.7754 120.173 62.8172 119.852 63.117 119.958C63.2936 119.946 63.3464 120.015 63.2746 120.164C63.2423 120.311 63.2013 120.459 63.1587 120.599C63.0942 120.819 63.0195 121.035 62.9388 121.25C62.7503 121.754 62.5269 122.244 62.2704 122.716C62.1406 122.955 62.4859 123.208 62.6171 122.965H62.6185Z" fill="#4C99AF"/>
<path d="M46.9891 127.346C43.8146 121.673 43.3448 114.669 45.532 108.562C46.159 106.816 47.0072 105.158 48.0556 103.63C48.2587 103.335 47.783 103.041 47.5799 103.335C43.8168 108.837 42.6975 115.983 44.3981 122.418C44.8773 124.231 45.5824 125.976 46.4966 127.611C46.6725 127.925 47.1658 127.663 46.9891 127.347V127.346Z" fill="#F28A75"/>
<path d="M43.8179 117.894C43.3127 117.736 42.8173 117.548 42.3343 117.331C42.1364 117.237 41.0883 116.742 41.0985 116.489C41.119 115.844 42.1408 116.917 42.2515 117.031C42.6351 117.424 43.018 117.82 43.4001 118.219C43.6493 118.477 44.0598 118.092 43.8054 117.833C43.4206 117.435 41.1447 114.572 40.4879 116.043C40.2593 116.559 40.8039 117.018 41.1616 117.285C41.9004 117.838 42.7917 118.139 43.6537 118.43C43.9953 118.545 44.1572 118.008 43.8164 117.894H43.8179Z" fill="#F28A75"/>
<path d="M43.9781 115.007C43.3778 114.639 42.7878 114.251 42.2138 113.842C41.876 113.613 41.5573 113.357 41.261 113.076C41.0675 112.883 40.6328 112.467 40.668 112.176C40.5923 112.034 40.6411 111.994 40.8146 112.056C40.9229 112.036 41.0347 112.061 41.1254 112.123C41.3453 112.21 41.5175 112.376 41.6854 112.534C41.9309 112.77 42.1585 113.023 42.3663 113.293C42.8367 113.902 43.2215 114.573 43.5098 115.288C43.6476 115.621 44.1394 115.355 44.0023 115.024C43.5625 113.956 42.927 112.951 42.0907 112.148C41.6509 111.729 40.8446 111.155 40.2333 111.633C39.647 112.09 40.5155 113.123 40.8571 113.465C41.6678 114.275 42.7203 114.891 43.6893 115.488C43.9957 115.676 44.2896 115.199 43.9825 115.01L43.9781 115.007Z" fill="#F28A75"/>
<path d="M44.4393 111.347C43.4528 110.83 42.5673 110.138 41.8255 109.305C41.6562 109.116 41.0874 108.6 41.0925 108.343C41.1776 108.188 41.2628 108.033 41.3483 107.878C41.4571 107.909 41.5626 107.95 41.6635 108.001C41.8236 108.073 41.9772 108.158 42.1224 108.257C42.4134 108.458 42.6738 108.701 42.8957 108.978C43.4623 109.677 43.7877 110.529 44.056 111.377C44.1637 111.72 44.7098 111.598 44.6006 111.254C44.2553 110.161 43.8155 109.058 42.9799 108.244C42.524 107.802 41.3674 106.887 40.7172 107.455C39.9843 108.102 40.9239 109.121 41.3535 109.613C42.1464 110.511 43.093 111.259 44.1483 111.822C44.4635 111.992 44.7589 111.517 44.4415 111.344L44.4393 111.347Z" fill="#F28A75"/>
<path d="M45.5605 107.629C45.1515 106.79 44.5035 106.141 43.9838 105.377C43.7617 105.063 43.5871 104.718 43.4656 104.353C43.3681 104.042 43.1959 103.303 43.5213 103.091C43.8878 102.855 44.4009 103.42 44.5753 103.71C44.8282 104.139 44.8737 104.657 44.8737 105.143C44.8737 105.996 44.7483 106.826 44.947 107.668C45.0298 108.019 45.5744 107.896 45.4923 107.545C45.1991 106.293 45.6961 104.953 45.2042 103.733C44.9345 103.065 44.1326 102.241 43.3285 102.488C42.5406 102.731 42.7825 104.108 42.9906 104.676C43.4378 105.899 44.5042 106.738 45.0686 107.893C45.227 108.217 45.7195 107.952 45.5612 107.629H45.5605Z" fill="#F28A75"/>
<path d="M47.8669 103.743C47.6199 102.859 47.636 101.96 47.8324 101.07C47.9695 100.446 48.2942 99.0649 49.014 98.8566C49.2158 98.6858 49.3184 98.7967 49.3219 99.1893C49.3057 99.2556 49.2903 99.3219 49.2749 99.3881C49.2552 99.584 49.1716 99.7901 49.1137 99.9771C48.9953 100.368 48.8553 100.752 48.6944 101.127C48.3485 101.916 47.9127 102.662 47.3956 103.35C47.1808 103.64 47.6573 103.933 47.8706 103.645C48.5983 102.67 49.1673 101.586 49.5564 100.432C49.7411 99.877 50.3627 98.1874 49.2141 98.2094C48.2429 98.2278 47.688 99.5486 47.455 100.319C47.1031 101.469 46.9983 102.697 47.3245 103.864C47.4212 104.21 47.9666 104.089 47.8698 103.741L47.8669 103.743Z" fill="#F28A75"/>
<path d="M46.0183 107.769C46.4434 107.214 46.9711 106.772 47.5436 106.377C47.7782 106.216 48.0193 106.064 48.2612 105.914C48.3345 105.868 48.5126 105.709 48.5991 105.709C48.69 105.627 48.7457 105.673 48.7647 105.848C48.924 106.002 48.8913 106.137 48.6665 106.253C48.4637 106.484 48.2312 106.688 47.9753 106.859C47.6213 107.079 47.2563 107.029 46.8634 107.067C46.3214 107.124 45.8041 107.324 45.3645 107.648C45.0713 107.854 45.3337 108.351 45.6269 108.142C46.2257 107.717 46.7725 107.665 47.4806 107.605C47.8764 107.57 48.1703 107.419 48.4818 107.178C48.9465 106.819 49.854 106.066 49.4625 105.368C49.0535 104.64 48.1762 105.303 47.7269 105.589C46.9037 106.113 46.1414 106.693 45.5426 107.474C45.3227 107.76 45.8006 108.053 46.0183 107.768V107.769Z" fill="#F28A75"/>
<path d="M44.7033 111.997C45.1094 111.634 45.5162 111.266 45.9838 110.984C46.2118 110.847 47.0518 110.349 47.3215 110.56C47.2775 110.477 47.2336 110.394 47.1888 110.311C47.1969 110.752 46.6127 111.31 46.2719 111.5C45.8321 111.745 45.2721 111.665 44.7803 111.639C44.4211 111.62 44.3999 112.18 44.759 112.199C45.492 112.237 46.2675 112.321 46.8517 111.793C47.1786 111.498 47.8778 110.804 47.7437 110.297C47.5971 109.739 46.7864 110.02 46.4243 110.149C45.6122 110.444 44.9584 111.022 44.32 111.589C44.051 111.828 44.435 112.235 44.704 111.996L44.7033 111.997Z" fill="#F28A75"/>
<path d="M44.0692 115.964C44.862 115.707 45.6056 115.317 46.2682 114.81C46.6566 114.509 47.4314 113.982 46.9374 113.435C45.8929 112.281 44.174 114.523 43.8039 115.327C43.6573 115.651 44.1286 115.949 44.2796 115.622C44.4596 115.211 44.7074 114.833 45.0126 114.504C45.1643 114.346 46.4441 113.387 46.381 113.864C46.3341 114.217 45.6004 114.615 45.3263 114.782C44.8907 115.045 44.427 115.258 43.9439 115.417C43.606 115.53 43.724 116.08 44.0663 115.964H44.0692Z" fill="#F28A75"/>
<path d="M44.3424 118.607C44.8819 118.287 47.4524 116.833 46.63 115.938C46.3171 115.598 45.7805 115.831 45.4778 116.044C44.8372 116.494 44.4304 117.281 44.0485 117.944C43.8682 118.255 44.3417 118.551 44.5235 118.238C44.714 117.909 44.9083 117.58 45.123 117.266C45.251 117.063 45.3983 116.873 45.5628 116.699C45.675 116.589 45.9564 116.209 45.9813 116.525C46.0048 116.819 45.4741 117.135 45.2542 117.31C44.8812 117.605 44.4881 117.873 44.0778 118.113C43.7692 118.296 44.0302 118.791 44.3402 118.607H44.3424Z" fill="#F28A75"/>
<path d="M80.2441 73.0051C93.499 73.0051 104.244 62.4838 104.244 49.5051C104.244 36.5264 93.499 26.0051 80.2441 26.0051C66.9893 26.0051 56.2441 36.5264 56.2441 49.5051C56.2441 62.4838 66.9893 73.0051 80.2441 73.0051Z" fill="white"/>
<path d="M104.244 72.0051C113.633 72.0051 121.244 65.5133 121.244 57.5051C121.244 49.497 113.633 43.0051 104.244 43.0051C94.8553 43.0051 87.2441 49.497 87.2441 57.5051C87.2441 65.5133 94.8553 72.0051 104.244 72.0051Z" fill="white"/>
<path d="M57.7441 72.0051C66.8568 72.0051 74.2441 65.5133 74.2441 57.5051C74.2441 49.497 66.8568 43.0051 57.7441 43.0051C48.6314 43.0051 41.2441 49.497 41.2441 57.5051C41.2441 65.5133 48.6314 72.0051 57.7441 72.0051Z" fill="white"/>
<path d="M65.2441 51.129C65.2441 42.568 71.4304 35.0051 80.8782 35.0051C89.3646 35.0051 96.2441 41.9448 96.2441 50.5051C96.2441 59.0655 89.3626 66.0051 80.8782 66.0051C72.3938 66.0051 65.2441 59.6861 65.2441 51.129Z" fill="#648463"/>
<path d="M89.4961 42.0051H71.9949C71.795 42.0061 71.6036 42.0904 71.4629 42.2397C71.3221 42.3889 71.2434 42.5909 71.2441 42.8011V46.2092C71.2437 46.3133 71.2628 46.4165 71.3003 46.5128C71.3378 46.6092 71.393 46.6969 71.4627 46.7708C71.5324 46.8447 71.6153 46.9035 71.7066 46.9437C71.7979 46.9839 71.8959 47.0048 71.9949 47.0051C72.0939 47.0048 72.1918 46.9839 72.2831 46.9437C72.3745 46.9035 72.4573 46.8447 72.5271 46.7708C72.5968 46.6969 72.652 46.6092 72.6895 46.5128C72.727 46.4165 72.746 46.3133 72.7456 46.2092V44.3902C72.7449 44.18 72.8236 43.978 72.9643 43.8288C73.1051 43.6795 73.2964 43.5952 73.4963 43.5942H87.994C88.093 43.5946 88.191 43.6155 88.2823 43.6557C88.3737 43.6959 88.4566 43.7546 88.5264 43.8285C88.5962 43.9025 88.6514 43.9901 88.689 44.0865C88.7266 44.1828 88.7457 44.2861 88.7454 44.3902V46.2092C88.7449 46.3133 88.764 46.4165 88.8015 46.5128C88.839 46.6092 88.8942 46.6969 88.9639 46.7708C89.0336 46.8447 89.1165 46.9035 89.2078 46.9437C89.2991 46.9839 89.3971 47.0048 89.4961 47.0051C89.6956 47.0036 89.8863 46.919 90.0266 46.7698C90.1668 46.6206 90.245 46.419 90.2441 46.2092V42.7983C90.2441 42.589 90.1655 42.3882 90.0254 42.2397C89.8853 42.0911 89.695 42.0068 89.4961 42.0051Z" fill="white"/>
<path d="M82.8739 52.3602V61.3838C82.8742 61.4651 82.8597 61.5456 82.831 61.6208C82.8024 61.696 82.7602 61.7644 82.707 61.8221C82.6537 61.8798 82.5904 61.9256 82.5207 61.957C82.4509 61.9884 82.3761 62.0048 82.3005 62.0051H79.4176C79.3419 62.0048 79.2671 61.9884 79.1974 61.957C79.1276 61.9256 79.0643 61.8798 79.0111 61.8221C78.9579 61.7644 78.9157 61.696 78.8871 61.6208C78.8584 61.5456 78.8438 61.4651 78.8442 61.3838V52.3602C78.8445 52.1962 78.7842 52.0387 78.6766 51.9224C78.569 51.806 78.4228 51.7403 78.2702 51.7396H76.8183C76.7051 51.7387 76.5946 51.7022 76.5006 51.6345C76.4066 51.5668 76.3331 51.471 76.2893 51.3589C76.2454 51.2468 76.2332 51.1233 76.254 51.0038C76.2749 50.8843 76.3279 50.774 76.4066 50.6866L80.421 46.1942C80.4751 46.1336 80.5401 46.0855 80.6121 46.053C80.6841 46.0205 80.7615 46.0042 80.8396 46.0052C80.9177 46.0061 80.9948 46.0242 81.0661 46.0584C81.1374 46.0926 81.2014 46.1422 81.2542 46.204L85.0909 50.6964C85.1669 50.7849 85.2173 50.8952 85.236 51.0138C85.2547 51.1325 85.241 51.2545 85.1964 51.3649C85.1518 51.4753 85.0783 51.5694 84.9849 51.6358C84.8915 51.7022 84.7821 51.738 84.6701 51.7389H83.4491C83.3734 51.739 83.2983 51.7552 83.2284 51.7865C83.1584 51.8177 83.0949 51.8636 83.0415 51.9213C82.988 51.979 82.9457 52.0475 82.917 52.1228C82.8882 52.1981 82.8736 52.2788 82.8739 52.3602Z" fill="white"/>
<path d="M66.8335 41.821C67.8475 39.5113 69.7171 37.6268 72.095 36.5176C72.4333 36.3582 72.1361 35.8777 71.7991 36.0371C69.2693 37.2313 67.3574 39.2031 66.2678 41.6733C66.1222 42.0031 66.6898 42.1476 66.8335 41.821Z" fill="#648463"/>
<path d="M96.7775 53.2686C96.7044 54.0961 96.5309 54.9069 96.2624 55.6759C96.1491 56.0037 96.5962 56.1463 96.7085 55.8221C96.99 55.006 97.1699 54.1458 97.2427 53.2686C97.2736 52.9158 96.811 52.9188 96.7791 53.2686H96.7775Z" fill="#648463"/>
<path d="M58.1209 15.3584C58.1209 15.3584 54.5931 13.3456 52.4037 15.3584C50.2143 17.3713 54.3417 20.3986 48.6398 19.9848C42.938 19.5711 41.8759 23.1616 43.9788 24.2033C46.0817 25.245 61.3746 25.0507 62.2439 24.3123C63.1132 23.5738 61.7081 23.3095 60.9935 22.0661C60.2788 20.8226 63.7788 22.2317 63.6886 19.9826C63.5985 17.7335 58.9243 18.3924 58.9352 17.2542C58.9462 16.116 58.9851 15.756 58.1209 15.3584Z" fill="#F8FFFF"/>
<path d="M42.8175 21.329C42.7982 21.3338 42.7781 21.3338 42.7588 21.329C42.745 21.3251 42.7321 21.3184 42.7209 21.3093C42.7097 21.3003 42.7005 21.2891 42.6936 21.2764C42.6868 21.2637 42.6826 21.2498 42.6812 21.2354C42.6798 21.2211 42.6813 21.2066 42.6855 21.1928C42.9399 20.3565 45.3976 18.6551 47.8083 19.1101C49.1651 19.3663 50.2521 19.2124 50.7168 18.7C50.9587 18.4335 51.01 18.0786 50.8766 17.6693C50.4412 16.3839 51.1397 15.2148 51.1698 15.1662C51.1854 15.1408 51.2102 15.1224 51.239 15.1148C51.2678 15.1073 51.2984 15.1112 51.3244 15.1257C51.3367 15.1327 51.3474 15.1421 51.3561 15.1533C51.3647 15.1646 51.371 15.1774 51.3746 15.1911C51.3782 15.2048 51.3791 15.2191 51.3771 15.2332C51.3752 15.2472 51.3705 15.2607 51.3633 15.2729C51.3567 15.2847 50.6889 16.406 51.0913 17.5949C51.2555 18.0786 51.1837 18.5079 50.8854 18.8377C50.3584 19.4193 49.22 19.5945 47.7614 19.3192C45.5126 18.8951 43.1326 20.4875 42.9025 21.2458C42.8973 21.2662 42.8866 21.2847 42.8716 21.2994C42.8566 21.314 42.8379 21.3243 42.8175 21.329Z" fill="#F8FFFF"/>
<path d="M49.417 25.6771C49.4104 25.6778 49.4037 25.6778 49.3972 25.6771C49.2506 25.6889 45.7323 25.9569 44.1784 25.5556C42.5658 25.1412 42.384 23.8705 42.3767 23.816C42.3734 23.7865 42.3817 23.7569 42.4 23.7337C42.4182 23.7104 42.4449 23.6952 42.4742 23.6916C42.4886 23.6893 42.5034 23.6899 42.5176 23.6933C42.5318 23.6968 42.5452 23.703 42.557 23.7117C42.5688 23.7204 42.5787 23.7314 42.5863 23.744C42.5938 23.7566 42.5988 23.7705 42.601 23.7851C42.6076 23.8344 42.7791 24.963 44.2392 25.3429C45.7594 25.7338 49.3473 25.4607 49.3832 25.4577C49.3977 25.4564 49.4123 25.458 49.4262 25.4623C49.4401 25.4667 49.453 25.4738 49.4642 25.4831C49.4753 25.4925 49.4845 25.504 49.4913 25.5169C49.498 25.5299 49.5022 25.544 49.5034 25.5586C49.5054 25.5854 49.4978 25.6121 49.4819 25.6338C49.4661 25.6556 49.443 25.6709 49.417 25.6771Z" fill="#F8FFFF"/>
<path d="M138.046 38.6567C138.046 38.6567 135.226 37.0473 133.476 38.6567C131.725 40.266 135.024 42.6874 130.465 42.3569C125.906 42.0263 125.056 44.8976 126.737 45.7302C128.419 46.5629 140.65 46.4075 141.344 45.8171C142.038 45.2266 140.916 45.0153 140.344 44.0215C139.773 43.0276 142.571 44.1532 142.5 42.3547C142.429 40.5561 138.688 41.0832 138.699 40.1725C138.709 39.2618 138.738 38.9747 138.046 38.6567Z" fill="#F8FFFF"/>
<path d="M125.808 43.4317C125.793 43.4358 125.777 43.4358 125.762 43.4317C125.75 43.4287 125.74 43.4236 125.731 43.4165C125.722 43.4094 125.714 43.4006 125.708 43.3905C125.703 43.3804 125.699 43.3693 125.698 43.3578C125.697 43.3463 125.697 43.3346 125.701 43.3235C125.904 42.6543 127.872 41.2938 129.797 41.6574C130.882 41.8621 131.751 41.7392 132.123 41.3298C132.317 41.1163 132.361 40.8322 132.251 40.5082C131.903 39.4775 132.462 38.5455 132.485 38.5065C132.498 38.486 132.518 38.4712 132.541 38.4651C132.564 38.4591 132.589 38.4623 132.61 38.4741C132.62 38.4797 132.629 38.4873 132.636 38.4965C132.643 38.5057 132.648 38.5162 132.651 38.5274C132.654 38.5386 132.654 38.5503 132.653 38.5618C132.651 38.5733 132.647 38.5842 132.641 38.5941C132.635 38.6029 132.101 39.5003 132.421 40.4508C132.552 40.8373 132.494 41.1811 132.256 41.4447C131.834 41.91 130.924 42.0506 129.758 41.8305C127.959 41.4903 126.056 42.7647 125.873 43.3706C125.868 43.3854 125.86 43.3987 125.848 43.4094C125.837 43.42 125.823 43.4277 125.808 43.4317Z" fill="#F8FFFF"/>
<path d="M131.085 46.9073H131.069C130.95 46.9161 128.141 47.1282 126.896 46.8101C125.608 46.4781 125.46 45.4621 125.455 45.4187C125.452 45.3951 125.459 45.3715 125.474 45.3529C125.488 45.3343 125.51 45.3222 125.533 45.3193C125.544 45.3174 125.556 45.3178 125.568 45.3205C125.579 45.3232 125.589 45.3281 125.599 45.3349C125.608 45.3418 125.616 45.3504 125.622 45.3604C125.628 45.3703 125.632 45.3814 125.634 45.3929C125.639 45.4327 125.781 46.3382 126.945 46.6386C128.16 46.9515 131.029 46.7328 131.058 46.7306C131.081 46.7282 131.103 46.7346 131.121 46.7483C131.138 46.7621 131.15 46.7822 131.154 46.8045C131.157 46.8267 131.152 46.8495 131.139 46.8679C131.126 46.8864 131.107 46.8992 131.085 46.9036V46.9073Z" fill="#F8FFFF"/>
<path d="M33.3436 69.9669C33.3436 69.9669 28.3982 66.6282 24.9715 69.336C21.5448 72.0438 27.2562 76.9315 18.9538 75.6932C10.6513 74.4549 8.6979 79.5951 11.6635 81.3562C14.6292 83.1172 37.0503 84.5219 38.4034 83.5376C39.7564 82.5532 37.7298 82.0092 36.8194 80.109C35.909 78.2089 40.8786 80.6597 40.9974 77.3556C41.1161 74.0515 34.1924 74.4998 34.3353 72.833C34.4783 71.1662 34.5662 70.645 33.3436 69.9669Z" fill="#F8FFFF"/>
<path d="M10.2724 77.0184C10.2439 77.0229 10.2147 77.0204 10.1874 77.011C10.1672 77.0041 10.1486 76.9932 10.1328 76.9789C10.1169 76.9646 10.104 76.9473 10.095 76.9279C10.086 76.9085 10.0809 76.8875 10.0802 76.8661C10.0794 76.8447 10.083 76.8234 10.0906 76.8034C10.5553 75.6063 14.3419 73.3866 17.8221 74.3194C19.7806 74.8443 21.3902 74.7405 22.1269 74.0411C22.5102 73.6774 22.6304 73.1635 22.4736 72.5547C21.9774 70.6229 23.1281 68.9892 23.178 68.9208C23.2035 68.885 23.2419 68.8606 23.285 68.8528C23.3281 68.845 23.3725 68.8543 23.4089 68.8788C23.4261 68.8905 23.4409 68.9055 23.4524 68.923C23.4638 68.9404 23.4717 68.96 23.4755 68.9806C23.4793 69.0011 23.479 69.0223 23.4746 69.0427C23.4702 69.0631 23.4618 69.0825 23.4499 69.0996C23.4382 69.1151 22.3372 70.684 22.7961 72.47C22.983 73.1959 22.8313 73.818 22.3563 74.2671C21.5207 75.0608 19.8341 75.1918 17.7283 74.6271C14.4804 73.7562 10.8207 75.8257 10.3985 76.9094C10.3887 76.937 10.3719 76.9616 10.3498 76.9807C10.3277 76.9998 10.301 77.0128 10.2724 77.0184Z" fill="#F8FFFF"/>
<path d="M19.4617 84.1169C19.4521 84.1177 19.4426 84.1177 19.4331 84.1169C19.2132 84.1169 14.0391 84.1169 11.8028 83.3608C9.48947 82.5752 9.359 80.6935 9.3546 80.6132C9.35301 80.5697 9.36858 80.5272 9.39795 80.4951C9.42731 80.463 9.4681 80.4438 9.51146 80.4417C9.55399 80.4382 9.59616 80.4517 9.62882 80.4793C9.66148 80.5069 9.682 80.5463 9.68591 80.5889C9.69104 80.6626 9.81785 82.3397 11.9149 83.0523C14.0984 83.7937 19.3832 83.7885 19.436 83.7885C19.4575 83.7879 19.4788 83.7917 19.4988 83.7995C19.5188 83.8073 19.537 83.8191 19.5524 83.8342C19.5677 83.8492 19.58 83.8672 19.5883 83.887C19.5966 83.9069 19.6009 83.9282 19.6009 83.9498C19.6019 83.9899 19.5883 84.0289 19.5627 84.0597C19.5371 84.0905 19.5011 84.1108 19.4617 84.1169Z" fill="#F8FFFF"/>
</g>
</svg>
